<svg width="173" height="33" viewBox="0 0 173 33" fill="none" xmlns="http://www.w3.org/2000/svg">
<path d="M47.032 24.192C45.352 24.192 43.832 23.824 42.472 23.088C41.128 22.336 40.072 21.312 39.304 20.016C38.536 18.704 38.152 17.232 38.152 15.6C38.152 13.968 38.536 12.504 39.304 11.208C40.072 9.896 41.136 8.872 42.496 8.136C43.856 7.384 45.376 7.008 47.056 7.008C48.368 7.008 49.568 7.232 50.656 7.68C51.744 8.112 52.672 8.76 53.44 9.624L51.88 11.136C50.616 9.808 49.04 9.144 47.152 9.144C45.904 9.144 44.776 9.424 43.768 9.984C42.76 10.544 41.968 11.32 41.392 12.312C40.832 13.288 40.552 14.384 40.552 15.6C40.552 16.816 40.832 17.92 41.392 18.912C41.968 19.888 42.76 20.656 43.768 21.216C44.776 21.776 45.904 22.056 47.152 22.056C49.024 22.056 50.6 21.384 51.88 20.04L53.44 21.552C52.672 22.416 51.736 23.072 50.632 23.52C49.544 23.968 48.344 24.192 47.032 24.192ZM61.4367 24.144C60.1727 24.144 59.0367 23.864 58.0287 23.304C57.0207 22.744 56.2287 21.976 55.6527 21C55.0927 20.008 54.8127 18.888 54.8127 17.64C54.8127 16.392 55.0927 15.28 55.6527 14.304C56.2287 13.312 57.0207 12.544 58.0287 12C59.0367 11.44 60.1727 11.16 61.4367 11.16C62.7007 11.16 63.8287 11.44 64.8207 12C65.8287 12.544 66.6127 13.312 67.1727 14.304C67.7487 15.28 68.0367 16.392 68.0367 17.64C68.0367 18.888 67.7487 20.008 67.1727 21C66.6127 21.976 65.8287 22.744 64.8207 23.304C63.8287 23.864 62.7007 24.144 61.4367 24.144ZM61.4367 22.128C62.2527 22.128 62.9807 21.944 63.6207 21.576C64.2767 21.192 64.7887 20.664 65.1567 19.992C65.5247 19.304 65.7087 18.52 65.7087 17.64C65.7087 16.76 65.5247 15.984 65.1567 15.312C64.7887 14.624 64.2767 14.096 63.6207 13.728C62.9807 13.36 62.2527 13.176 61.4367 13.176C60.6207 13.176 59.8847 13.36 59.2287 13.728C58.5887 14.096 58.0767 14.624 57.6927 15.312C57.3247 15.984 57.1407 16.76 57.1407 17.64C57.1407 18.52 57.3247 19.304 57.6927 19.992C58.0767 20.664 58.5887 21.192 59.2287 21.576C59.8847 21.944 60.6207 22.128 61.4367 22.128ZM87.1351 11.16C88.7351 11.16 89.9991 11.624 90.9271 12.552C91.8711 13.48 92.3431 14.856 92.3431 16.68V24H90.0391V16.944C90.0391 15.712 89.7511 14.784 89.1751 14.16C88.6151 13.536 87.8071 13.224 86.7511 13.224C85.5831 13.224 84.6551 13.592 83.9671 14.328C83.2791 15.048 82.9351 16.088 82.9351 17.448V24H80.6311V16.944C80.6311 15.712 80.3431 14.784 79.7671 14.16C79.2071 13.536 78.3991 13.224 77.3431 13.224C76.1751 13.224 75.2471 13.592 74.5591 14.328C73.8711 15.048 73.5271 16.088 73.5271 17.448V24H71.2231V11.28H73.4311V13.176C73.8951 12.52 74.5031 12.024 75.2551 11.688C76.0071 11.336 76.8631 11.16 77.8231 11.16C78.8151 11.16 79.6951 11.36 80.4631 11.76C81.2311 12.16 81.8231 12.744 82.2391 13.512C82.7191 12.776 83.3831 12.2 84.2311 11.784C85.0951 11.368 86.0631 11.16 87.1351 11.16ZM112.494 11.16C114.094 11.16 115.358 11.624 116.286 12.552C117.23 13.48 117.702 14.856 117.702 16.68V24H115.398V16.944C115.398 15.712 115.11 14.784 114.534 14.16C113.974 13.536 113.166 13.224 112.11 13.224C110.942 13.224 110.014 13.592 109.326 14.328C108.638 15.048 108.294 16.088 108.294 17.448V24H105.99V16.944C105.99 15.712 105.702 14.784 105.126 14.16C104.566 13.536 103.758 13.224 102.702 13.224C101.534 13.224 100.606 13.592 99.9184 14.328C99.2304 15.048 98.8864 16.088 98.8864 17.448V24H96.5824V11.28H98.7904V13.176C99.2544 12.52 99.8624 12.024 100.614 11.688C101.366 11.336 102.222 11.16 103.182 11.16C104.174 11.16 105.054 11.36 105.822 11.76C106.59 12.16 107.182 12.744 107.598 13.512C108.078 12.776 108.742 12.2 109.59 11.784C110.454 11.368 111.422 11.16 112.494 11.16ZM133.508 17.712C133.508 17.888 133.492 18.12 133.46 18.408H123.14C123.284 19.528 123.772 20.432 124.604 21.12C125.452 21.792 126.5 22.128 127.748 22.128C129.268 22.128 130.492 21.616 131.42 20.592L132.692 22.08C132.116 22.752 131.396 23.264 130.532 23.616C129.684 23.968 128.732 24.144 127.676 24.144C126.332 24.144 125.14 23.872 124.1 23.328C123.06 22.768 122.252 21.992 121.676 21C121.116 20.008 120.836 18.888 120.836 17.64C120.836 16.408 121.108 15.296 121.652 14.304C122.212 13.312 122.972 12.544 123.932 12C124.908 11.44 126.004 11.16 127.22 11.16C128.436 11.16 129.516 11.44 130.46 12C131.42 12.544 132.164 13.312 132.692 14.304C133.236 15.296 133.508 16.432 133.508 17.712ZM127.22 13.104C126.116 13.104 125.188 13.44 124.436 14.112C123.7 14.784 123.268 15.664 123.14 16.752H131.3C131.172 15.68 130.732 14.808 129.98 14.136C129.244 13.448 128.324 13.104 127.22 13.104ZM138.915 13.416C139.315 12.68 139.907 12.12 140.691 11.736C141.475 11.352 142.427 11.16 143.547 11.16V13.392C143.419 13.376 143.243 13.368 143.019 13.368C141.771 13.368 140.787 13.744 140.067 14.496C139.363 15.232 139.011 16.288 139.011 17.664V24H136.707V11.28H138.915V13.416ZM151.814 24.144C150.518 24.144 149.358 23.864 148.334 23.304C147.326 22.744 146.534 21.976 145.958 21C145.382 20.008 145.094 18.888 145.094 17.64C145.094 16.392 145.382 15.28 145.958 14.304C146.534 13.312 147.326 12.544 148.334 12C149.358 11.44 150.518 11.16 151.814 11.16C152.966 11.16 153.99 11.392 154.886 11.856C155.798 12.32 156.502 12.992 156.998 13.872L155.246 15C154.846 14.392 154.35 13.936 153.758 13.632C153.166 13.328 152.51 13.176 151.79 13.176C150.958 13.176 150.206 13.36 149.534 13.728C148.878 14.096 148.358 14.624 147.974 15.312C147.606 15.984 147.422 16.76 147.422 17.64C147.422 18.536 147.606 19.328 147.974 20.016C148.358 20.688 148.878 21.208 149.534 21.576C150.206 21.944 150.958 22.128 151.79 22.128C152.51 22.128 153.166 21.976 153.758 21.672C154.35 21.368 154.846 20.912 155.246 20.304L156.998 21.408C156.502 22.288 155.798 22.968 154.886 23.448C153.99 23.912 152.966 24.144 151.814 24.144ZM171.289 17.712C171.289 17.888 171.273 18.12 171.241 18.408H160.921C161.065 19.528 161.553 20.432 162.385 21.12C163.233 21.792 164.281 22.128 165.529 22.128C167.049 22.128 168.273 21.616 169.201 20.592L170.473 22.08C169.897 22.752 169.177 23.264 168.313 23.616C167.465 23.968 166.513 24.144 165.457 24.144C164.113 24.144 162.921 23.872 161.881 23.328C160.841 22.768 160.033 21.992 159.457 21C158.897 20.008 158.617 18.888 158.617 17.64C158.617 16.408 158.889 15.296 159.433 14.304C159.993 13.312 160.753 12.544 161.713 12C162.689 11.44 163.785 11.16 165.001 11.16C166.217 11.16 167.297 11.44 168.241 12C169.201 12.544 169.945 13.312 170.473 14.304C171.017 15.296 171.289 16.432 171.289 17.712ZM165.001 13.104C163.897 13.104 162.969 13.44 162.217 14.112C161.481 14.784 161.049 15.664 160.921 16.752H169.081C168.953 15.68 168.513 14.808 167.761 14.136C167.025 13.448 166.105 13.104 165.001 13.104Z" fill="#383838"/>
<path d="M9.33333 7.14301V25.0005H18.6667V21.429H12.4444V17.8575H18.6667V14.286H12.4444V10.7145H18.6667V7.14301H9.33333ZM3.11111 0H24.8889C25.714 0 26.5053 0.376282 27.0888 1.04607C27.6722 1.71586 28 2.62428 28 3.57151V28.572C28 29.5193 27.6722 30.4277 27.0888 31.0975C26.5053 31.7673 25.714 32.1436 24.8889 32.1436H3.11111C2.28599 32.1436 1.49467 31.7673 0.911223 31.0975C0.327777 30.4277 0 29.5193 0 28.572V3.57151C0 2.62428 0.327777 1.71586 0.911223 1.04607C1.49467 0.376282 2.28599 0 3.11111 0Z" fill="#383838"/>
</svg>
